HIERARCHY
ROOT pelvis
{
  OFFSET 0 100 0
  CHANNELS 6 Xposition Yposition Zposition Zrotation Xrotation Yrotation
  JOINT pelvis_right_femur
  {
    OFFSET -10.78128 -3.44521 -0.5502486
    CHANNELS 3 Zrotation Xrotation Yrotation
    JOINT right_femur_tibia
    {
      OFFSET -0.8047443 -44.0398 -0.1307829
      CHANNELS 3 Zrotation Xrotation Yrotation
      JOINT right_tibia_foot
      {
        OFFSET 3.006224 -47.83518 -5
        CHANNELS 3 Zrotation Xrotation Yrotation
        End Site
        {
          OFFSET 0 -5 15
        }
      }
    }
  }
  JOINT pelvis_left_femur
  {
    OFFSET 10.78128 -3.44521 -0.5502486
    CHANNELS 3 Zrotation Xrotation Yrotation
    JOINT left_femur_tibia
    {
      OFFSET 0.8047443 -44.0398 -0.1307829
      CHANNELS 3 Zrotation Xrotation Yrotation
      JOINT left_tibia_foot
      {
        OFFSET -4.370144 -48.10324 -4.275266
        CHANNELS 3 Zrotation Xrotation Yrotation
        End Site
        {
          OFFSET 0 -5 15
        }
      }
    }
  }
  JOINT pelvis_spine1
  {
    OFFSET 0 6.468898 -3.129235
    CHANNELS 3 Zrotation Xrotation Yrotation
    JOINT spine1
    {
      OFFSET 0 23.15396 4.99043
      CHANNELS 3 Zrotation Xrotation Yrotation
      JOINT spine2
      {
        OFFSET 0 20.79997 -5.064912
        CHANNELS 3 Zrotation Xrotation Yrotation
        JOINT neck
        {
          OFFSET 0 14.38658 9.616178
          CHANNELS 3 Zrotation Xrotation Yrotation
          End Site
          {
            OFFSET 0 20 0
          }
        }
      }
      JOINT right_manubrium
      {
        OFFSET -5.722621 16.35077 3.967754
        CHANNELS 3 Zrotation Xrotation Yrotation
        JOINT right_clavicle
        {
          OFFSET -13.16364 1.694482 -4.693211
          CHANNELS 3 Zrotation Xrotation Yrotation
          JOINT right_humerus
          {
            OFFSET -28.5034 -0.3100689 -2.792744
            CHANNELS 3 Zrotation Xrotation Yrotation
            JOINT right_radius
            {
              OFFSET -25.15693 0.02248979 -1.271978
              CHANNELS 3 Zrotation Xrotation Yrotation
              End Site
              {
                OFFSET -15 0 0
              }
            }
          }
        }
      }
      JOINT left_manubrium
      {
        OFFSET 5.722621 16.35077 3.967754
        CHANNELS 3 Zrotation Xrotation Yrotation
        JOINT left_clavicle
        {
          OFFSET 13.16364 1.694482 -4.693211
          CHANNELS 3 Zrotation Xrotation Yrotation
          JOINT left_humerus
          {
            OFFSET 29.39168 -1.063119 -2.237045
            CHANNELS 3 Zrotation Xrotation Yrotation
            JOINT left_radius
            {
              OFFSET 24.59957 -0.9528479 0.9047498
              CHANNELS 3 Zrotation Xrotation Yrotation
              End Site
              {
                OFFSET 15 -0 -0
              }
            }
          }
        }
      }
    }
  }
}
MOTION
Frames: 15
Frame Time: 0.0416666666667
-1178.452 87.60702 2666.004 -13.74375 -5.927362 -70.71318 3.788681 10.42368 7.694994 -0 25.96428 -0 3.900783 -16.29101 -7.241303 -0.6146743 -11.14134 -7.31212 -0 38.13016 -0 -9.319985 -10.02426 20.91651 1.631494 -6.372227 5.34845 0.08697749 20.43756 -5.175743 2.510838 20.79281 2.5149 1.860402 -16.56018 4.964838 5.637001 -25.0705 15.42744 82.07592 8.959044 -13.105 -0 0 23.77929 -32.95503 25.60225 20.53262 7.212592 -25.34892 -8.020891 -98.42302 13.05356 28.42425 0 0 -0.862915 14.72297 21.49286 -3.207467
-1184.229 86.97784 2668.741 -13.53075 -5.625205 -71.34771 3.564479 12.08815 7.616011 -0 27.26642 -0 4.669391 -16.84902 -6.750438 -0.3789293 -13.1323 -7.044318 -0 33.88556 -0 -9.143249 -9.987475 20.72432 1.57255 -6.329201 5.304855 0.07441739 20.35673 -5.159584 2.427947 20.95163 2.670956 2.128995 -16.33416 4.854102 5.784055 -24.76059 15.42561 81.94965 9.196939 -13.27696 -0 0 23.37666 -32.88486 25.34387 20.21758 7.303411 -25.51717 -8.190837 -98.48675 12.93853 28.17034 0 0 -0.4822829 15.18067 21.52907 -3.85682
-1190.078 86.34569 2671.612 -13.33033 -5.427296 -71.88604 3.22065 13.1742 7.461342 -0 29.52075 -0 5.374514 -17.08222 -6.513566 -0.478327 -13.9812 -7.011364 -0 30.65887 -0 -8.886907 -9.944325 20.36389 1.52844 -6.271021 5.258213 0.06693836 20.2413 -5.173856 2.360785 21.11214 2.796551 2.328117 -16.18374 4.779416 5.775673 -24.46608 15.38532 82.03021 9.477874 -13.52742 -0 0 22.85123 -32.70993 24.98894 19.83305 7.335758 -25.66961 -8.329956 -98.41662 12.85321 27.84733 0 0 -0.4050732 15.543 21.5393 -4.385164
-1195.98 85.86095 2674.586 -13.19006 -5.399327 -72.28994 2.767153 13.54736 7.226913 -0 32.75074 -0 5.968644 -16.8433 -6.563175 -0.9323986 -13.65461 -7.242076 -0 28.56884 -0 -8.587577 -9.990118 19.83941 1.507037 -6.203289 5.215215 0.06794163 20.10346 -5.22097 2.319166 21.25382 2.872959 2.424058 -16.13843 4.755562 5.596852 -24.22804 15.30998 82.3303 9.762076 -13.83725 -0 0 22.25656 -32.44076 24.57263 19.41956 7.29905 -25.78736 -8.418938 -98.21008 12.81331 27.49139 0 0 -0.6778153 15.75169 21.51915 -4.708925
-1201.88 85.61761 2677.612 -13.1503 -5.537988 -72.50501 2.283206 13.01827 6.902529 -0 36.76999 -0 6.389469 -16.15969 -6.891552 -1.631326 -12.19301 -7.686121 -0 27.33672 -0 -8.271268 -10.17319 19.17117 1.513194 -6.131501 5.181693 0.08046287 19.95514 -5.300443 2.308425 21.3626 2.889218 2.397957 -16.2136 4.790119 5.249224 -24.07478 15.20551 82.84189 10.01413 -14.1878 -0 0 21.63948 -32.09081 24.12697 19.01042 7.188614 -25.85832 -8.447668 -97.87935 12.8281 27.13851 0 0 -1.303534 15.77324 21.46656 -4.777396
-1207.699 85.63313 2680.62 -13.22155 -5.781089 -72.48587 1.863316 11.41965 6.480064 -0 41.09172 -0 6.573296 -15.26321 -7.444221 -2.39858 -9.711624 -8.250675 -0 26.5044 -0 -7.936372 -10.49537 18.40969 1.547246 -6.058823 5.163601 0.1054512 19.80568 -5.407675 2.327765 21.43002 2.843742 2.249803 -16.40787 4.880173 4.752124 -24.02271 15.07877 83.53277 10.21389 -14.55436 -0 0 21.04701 -31.67482 23.67674 18.62837 7.006545 -25.87615 -8.415642 -97.45 12.89529 26.82622 0 0 -2.236599 15.60097 21.37698 -4.57814
-1213.372 85.84949 2683.545 -13.36956 -6.047233 -72.21973 1.555826 8.708338 5.966889 -0 44.94739 -0 6.475305 -14.48219 -8.134747 -3.073598 -6.401595 -8.844154 -0 25.66413 -0 -7.569653 -10.94542 17.62935 1.605522 -5.986576 5.165165 0.1410574 19.66135 -5.534665 2.372131 21.45312 2.74276 1.995541 -16.70514 5.014607 4.138404 -24.07482 14.93617 84.35356 10.35824 -14.90916 -0 0 20.52076 -31.21048 23.23994 18.28769 6.762001 -25.83951 -8.32919 -96.95427 13.00357 26.5851 0 0 -3.397036 15.25229 21.2462 -4.133739
-1218.875 86.15288 2686.341 -13.51942 -6.276153 -71.73492 1.339866 5.042886 5.391932 -0 47.45962 -0 6.091778 -14.06615 -8.874945 -3.565128 -2.525355 -9.397754 -0 24.60384 -0 -7.184078 -11.52762 16.90204 1.681627 -5.916197 5.185829 0.1831634 19.52606 -5.671702 2.435172 21.4355 2.597981 1.661663 -17.07814 5.178823 3.449774 -24.21779 14.78356 85.2475 10.45538 -15.22989 -0 0 20.08454 -30.72133 22.83071 17.99811 6.471341 -25.75275 -8.19859 -96.42461 13.13912 26.42659 0 0 -4.690703 14.76504 21.07768 -3.495321
-1224.245 86.40816 2688.988 -13.58181 -6.446396 -71.09236 1.154969 0.7909017 4.797772 -0 47.938 -0 5.474703 -14.05594 -9.600777 -3.859275 1.607678 -9.863765 -0 23.35064 -0 -6.843519 -12.2562 16.27091 1.767764 -5.850819 5.219286 0.2268885 19.40276 -5.80913 2.511114 21.38701 2.424399 1.279909 -17.49275 5.358525 2.733256 -24.42303 14.62742 86.15726 10.51597 -15.5055 -0 0 19.73884 -30.23714 22.4623 17.76724 6.15706 -25.62664 -8.036346 -95.89088 13.29076 26.33901 0 0 -6.024554 14.19137 20.88654 -2.732931
-1229.573 86.5004 2691.495 -13.49354 -6.566088 -70.36872 0.957499 -3.55111 4.229876 -0 46.1714 -0 4.723116 -14.27863 -10.27784 -3.994165 5.690171 -10.2077 -0 22.13758 -0 -6.644848 -13.11685 15.7472 1.856001 -5.795753 5.255493 0.2681815 19.29518 -5.938535 2.595214 21.32118 2.23815 0.8828906 -17.91269 5.541412 2.038448 -24.65356 14.47623 87.02746 10.54526 -15.73547 -0 0 19.46739 -29.79156 22.14965 17.60164 5.845298 -25.47738 -7.856233 -95.38124 13.45157 26.29489 0 0 -7.313283 13.5893 20.69764 -1.92367
-1234.972 86.37093 2693.892 -13.25183 -6.650032 -69.64174 0.7626347 -7.490641 3.737029 -0 42.54969 -0 3.948835 -14.46101 -10.89013 -4.023093 9.469682 -10.40689 -0 21.32456 -0 -6.663554 -14.02629 15.3333 1.939282 -5.757976 5.284107 0.3045984 19.20923 -6.052951 2.683445 21.25149 2.054548 0.5009544 -18.30359 5.71721 1.41523 -24.8734 14.34091 87.80434 10.53964 -15.92376 -0 0 19.25101 -29.41921 21.91127 17.50801 5.562804 -25.32376 -7.672391 -94.92454 13.61755 26.26447 0 0 -8.478976 13.01436 20.5399 -1.140725
-1240.549 86.03657 2696.213 -12.92118 -6.701231 -68.98278 0.6470978 -10.65402 3.379113 -0 37.93273 -0 3.236522 -14.37926 -11.42868 -3.985546 12.77088 -10.45439 -0 21.30057 -0 -6.904227 -14.82559 15.05175 2.011935 -5.744827 5.297598 0.3350055 19.15326 -6.1462 2.771944 21.18782 1.886717 0.1605194 -18.63547 5.876811 0.9116301 -25.05565 14.23409 88.43465 10.48869 -16.07076 -0 0 19.0819 -29.15307 21.76963 17.49449 5.334219 -25.18329 -7.498292 -94.55184 13.78467 26.22868 0 0 -9.447638 12.51361 20.43979 -0.4459928
-1246.375 85.58672 2698.488 -12.60883 -6.706827 -68.45505 0.7149181 -12.83119 3.224919 -0 33.34305 -0 2.622352 -13.95488 -11.88691 -3.896094 15.4735 -10.36154 -0 22.39054 -0 -7.295664 -15.31982 14.9536 2.069668 -5.762115 5.293207 0.3585915 19.13697 -6.211985 2.856385 21.13439 1.745114 -0.1161882 -18.88374 6.011168 0.5712795 -25.18713 14.16817 88.86605 10.38148 -16.16719 -0 0 18.97283 -29.02215 21.7491 17.57078 5.180001 -25.06873 -7.345883 -94.29582 13.9457 26.18736 0 0 -10.14672 12.12283 20.41569 0.1128127
-1252.478 85.16033 2700.732 -12.4244 -6.646903 -68.11358 1.046303 -13.95351 3.331169 -0 29.64278 -0 2.099737 -13.26449 -12.25628 -3.749977 17.46585 -10.15663 -0 24.77973 -0 -7.732548 -15.34496 15.09679 2.109365 -5.812049 5.27364 0.3738532 19.16918 -6.243473 2.931458 21.08935 1.637805 -0.3106824 -19.02978 6.110554 0.4297518 -25.26904 14.15294 89.05045 10.2139 -16.19272 -0 0 18.95844 -29.04828 21.87097 17.74588 5.114811 -24.98621 -7.225143 -94.18763 14.08799 26.16066 0 0 -10.50723 11.86612 20.47325 0.5017602
-1258.835 84.90849 2702.942 -12.44247 -6.508651 -68.00359 1.653141 -14.04485 3.712585 -0 27.31539 -0 1.643478 -12.48907 -12.51819 -3.538001 18.60818 -9.881194 -0 28.45624 -0 -8.12962 -14.83121 15.51002 2.128974 -5.891606 5.246561 0.378216 19.25508 -6.233968 2.990783 21.04599 1.570851 -0.4083546 -19.06223 6.164845 0.5093073 -25.31448 14.19321 88.95153 9.993628 -16.12016 -0 0 19.08769 -29.24196 22.14647 18.02372 5.145915 -24.9351 -7.143832 -94.25131 14.19365 26.18376 0 0 -10.47286 11.75602 20.60265 0.7000427
